<svg data-v-423bf9ae="" xmlns="http://www.w3.org/2000/svg" viewBox="0 0 352 90" class="iconLeft"><!----><!----><!---->

<defs data-v-423bf9ae=""><linearGradient data-v-423bf9ae="" gradientTransform="rotate(25)" id="ad9d3a16-4e35-4a5c-bb9b-915e4a469377" x1="0%" y1="0%" x2="100%" y2="0%"><stop data-v-423bf9ae="" offset="0%" style="stop-color: rgb(0, 21, 214); stop-opacity: 1;"></stop><stop data-v-423bf9ae="" offset="100%" style="stop-color: rgb(9, 137, 251); stop-opacity: 1;"></stop></linearGradient></defs><g data-v-423bf9ae="" id="1d3f9cad-cece-4981-a674-d3497a6aaae6" transform="matrix(1.0714285714285714,0,0,1.0714285714285714,-8.57142857142857,-7.555642809186658)" stroke="none" fill="url(#ad9d3a16-4e35-4a5c-bb9b-915e4a469377)"><path d="M50 7.779c-23.159 0-42 18.841-42 42s18.841 42 42 42 42-18.841 42-42-18.841-42-42-42zm0 55.396c-3.977 0-7.336-7.141-7.369-15.621l1.855-2.534h11.028l1.855 2.534c-.033 8.48-3.392 15.621-7.369 15.621zm-15.417-8.096L14.502 31.348a40.092 40.092 0 0 1 3.309-5.312l24.752 18.143-7.98 10.9zm22.851-10.904L82.12 25.94a40.056 40.056 0 0 1 3.378 5.408L65.418 55.08l-7.984-10.905zM50 9.779c12.422 0 23.521 5.663 30.858 14.547L55.616 42.972H44.382L19.068 24.418C26.404 15.481 37.535 9.779 50 9.779zm-40 40a39.843 39.843 0 0 1 3.525-16.415l21.174 25.024 6.044-8.255c.474 6.098 2.522 11.086 5.373 13.487L40.93 88.733C23.21 84.623 10 68.749 10 49.779zM42.858 89.13l5.038-24.401a5.414 5.414 0 0 0 2.103.446c.727 0 1.429-.163 2.104-.446l5.038 24.401c-2.319.418-4.703.648-7.142.648s-4.822-.23-7.141-.648zm16.212-.397l-5.185-25.114c2.85-2.401 4.898-7.389 5.372-13.487l6.044 8.255 21.174-25.025A39.852 39.852 0 0 1 90 49.779c0 18.97-13.21 34.844-30.93 38.954z"></path></g><!----></svg>